<svg width="24" height="24" viewBox="0 0 24 24" fill="none" xmlns="http://www.w3.org/2000/svg">
<path d="M17.5401 8.81C19.1748 8.81 20.5001 7.48476 20.5001 5.85C20.5001 4.21524 19.1748 2.89 17.5401 2.89C15.9053 2.89 14.5801 4.21524 14.5801 5.85C14.5801 7.48476 15.9053 8.81 17.5401 8.81Z" fill="#0C0507"/>
<path d="M6.46 8.81C8.09476 8.81 9.42 7.48476 9.42 5.85C9.42 4.21524 8.09476 2.89 6.46 2.89C4.82524 2.89 3.5 4.21524 3.5 5.85C3.5 7.48476 4.82524 8.81 6.46 8.81Z" fill="#0C0507"/>
<path d="M17.5401 21.11C19.1748 21.11 20.5001 19.7848 20.5001 18.15C20.5001 16.5152 19.1748 15.19 17.5401 15.19C15.9053 15.19 14.5801 16.5152 14.5801 18.15C14.5801 19.7848 15.9053 21.11 17.5401 21.11Z" fill="#0C0507"/>
<path d="M6.46 21.11C8.09476 21.11 9.42 19.7848 9.42 18.15C9.42 16.5152 8.09476 15.19 6.46 15.19C4.82524 15.19 3.5 16.5152 3.5 18.15C3.5 19.7848 4.82524 21.11 6.46 21.11Z" fill="#0C0507"/>
</svg>
